<?xml version="1.0" standalone="no"?>
<!DOCTYPE svg PUBLIC "-//W3C//DTD SVG 20010904//EN"
 "http://www.w3.org/TR/2001/REC-SVG-20010904/DTD/svg10.dtd">
<svg version="1.0" xmlns="http://www.w3.org/2000/svg"
 width="682.000000pt" height="681.000000pt" viewBox="0 0 682.000000 681.000000"
 preserveAspectRatio="xMidYMid meet">

<g transform="translate(0.000000,681.000000) scale(0.100000,-0.100000)"
fill="#000000" stroke="none">
<path d="M0 3405 l0 -3405 3410 0 3410 0 0 3405 0 3405 -3410 0 -3410 0 0
-3405z m6810 -5 l0 -3390 -3390 0 -3390 0 0 3390 0 3390 3390 0 3390 0 0
-3390z"/>
<path d="M3570 5983 c0 -138 -10 -176 -47 -181 -12 -2 -33 4 -46 12 -22 15
-37 13 -37 -5 0 -13 56 -39 83 -39 13 0 34 12 48 26 23 24 24 33 27 170 3 126
1 144 -12 144 -14 0 -16 -18 -16 -127z"/>
<path d="M2929 6057 c-55 -37 -79 -81 -79 -147 0 -102 68 -170 170 -170 98 0
170 69 170 162 0 65 -24 113 -73 149 -53 38 -136 41 -188 6z m174 -33 c57 -41
73 -138 33 -199 -36 -54 -122 -73 -184 -41 -92 48 -97 192 -9 247 40 25 121
22 160 -7z"/>
<path d="M3807 6053 c-2 -16 -15 -75 -27 -132 -22 -100 -23 -105 -6 -136 42
-77 156 -74 190 4 25 56 65 241 54 247 -17 11 -24 -8 -49 -120 -29 -133 -45
-158 -102 -154 -30 2 -45 10 -60 30 l-20 26 27 119 c14 65 26 124 26 131 0 24
-28 11 -33 -15z"/>
<path d="M2630 5966 c0 -20 90 -288 101 -300 5 -6 11 -3 14 6 8 20 -86 300
-103 306 -6 2 -12 -3 -12 -12z"/>
<path d="M4157 5823 c-34 -85 -54 -150 -49 -155 12 -12 26 7 49 72 33 89 34
88 99 -127 2 -7 10 -13 19 -13 17 0 15 17 -17 109 -10 30 -18 56 -18 58 0 2
21 2 47 1 39 -1 50 3 70 26 28 33 31 87 6 112 -19 18 -115 64 -136 64 -7 0
-38 -66 -70 -147z m163 78 c47 -34 34 -101 -21 -101 -36 0 -99 25 -99 39 0 6
7 29 16 52 16 38 19 41 48 35 17 -3 42 -15 56 -25z"/>
<path d="M4603 5868 c-25 -12 -31 -28 -9 -28 26 0 76 22 70 31 -7 12 -33 10
-61 -3z"/>
<path d="M2339 5845 c-51 -18 -119 -54 -120 -63 -1 -18 137 -281 149 -282 19
0 105 45 140 75 83 70 49 226 -59 269 -46 19 -62 19 -110 1z m119 -42 c62 -39
83 -147 38 -196 -23 -25 -95 -67 -115 -67 -11 0 -121 207 -121 228 0 12 15 20
90 48 38 14 72 10 108 -13z"/>
<path d="M4546 5777 c-113 -193 -137 -240 -127 -250 6 -6 12 -9 15 -6 3 4 66
114 113 199 14 25 29 49 34 55 13 14 11 35 -3 35 -7 0 -22 -15 -32 -33z"/>
<path d="M4658 5578 c-53 -68 -94 -127 -91 -133 2 -5 31 -30 64 -54 72 -52
126 -63 184 -35 77 36 118 150 80 223 -16 32 -113 121 -131 121 -6 0 -54 -55
-106 -122z m149 56 c88 -67 97 -150 25 -226 -47 -51 -122 -47 -192 11 -30 26
-33 31 -23 52 14 29 140 189 150 189 3 0 22 -12 40 -26z"/>
<path d="M2020 5649 c0 -6 34 -53 75 -106 91 -114 98 -156 33 -189 -51 -27
-81 -9 -158 96 -53 72 -83 101 -93 91 -11 -11 101 -161 153 -205 36 -30 56
-32 104 -12 73 30 85 95 33 174 -83 122 -147 189 -147 151z"/>
<path d="M1687 5362 c-52 -53 -70 -82 -49 -82 5 0 17 9 27 20 10 11 23 20 29
20 6 0 54 -43 106 -95 82 -82 129 -114 130 -87 0 4 -48 53 -107 109 l-108 101
24 26 c16 17 21 30 15 36 -6 6 -30 -10 -67 -48z"/>
<path d="M5025 5358 c-152 -159 -159 -168 -148 -179 7 -7 43 24 122 107 61 65
111 121 111 126 0 22 -31 2 -85 -54z"/>
<path d="M5145 5194 c-46 -24 -66 -45 -87 -93 -26 -56 -18 -115 22 -170 31
-42 53 -58 101 -71 48 -14 35 15 -18 41 -84 42 -115 141 -67 214 25 38 97 68
141 60 77 -14 123 -70 123 -150 0 -33 4 -45 15 -45 20 0 21 90 1 128 -45 87
-153 127 -231 86z"/>
<path d="M1525 5141 c-79 -24 -99 -113 -33 -147 28 -14 36 -14 94 0 90 23 120
21 140 -8 23 -37 1 -78 -49 -90 -51 -13 -51 -41 1 -33 54 9 96 58 89 105 -12
71 -58 91 -150 67 -78 -20 -114 -19 -126 3 -13 24 8 66 34 70 11 2 24 8 30 13
14 13 -6 27 -30 20z"/>
<path d="M3040 5063 c-38 -13 -40 -30 -40 -302 -1 -146 -5 -286 -9 -311 -16
-83 -3 -80 -426 -80 -332 0 -375 -2 -390 -16 -14 -14 -16 -41 -13 -201 3 -169
5 -186 22 -199 16 -11 84 -14 370 -14 379 0 421 -5 436 -46 15 -38 12 -304 -3
-334 -23 -45 -59 -50 -372 -49 -423 2 -402 3 -431 -26 l-25 -25 3 -170 c3
-147 5 -172 21 -187 17 -17 43 -18 380 -15 236 3 371 0 389 -7 37 -14 39 -29
46 -372 l7 -294 40 -13 c58 -20 198 -26 285 -13 41 7 75 13 77 15 2 1 7 232
13 512 5 280 13 519 16 532 14 49 40 53 403 59 234 4 344 2 364 -6 51 -20 57
-53 57 -333 0 -247 7 -319 30 -342 13 -13 267 -22 335 -12 32 5 45 13 54 32 8
18 11 261 11 885 l0 860 -25 24 c-24 25 -27 25 -190 25 -212 0 -199 10 -208
-175 -4 -76 -7 -214 -7 -307 0 -192 -4 -201 -82 -213 -24 -3 -193 -5 -375 -3
-331 3 -333 3 -355 26 l-23 23 -3 519 -3 519 -26 21 c-23 18 -39 20 -182 19
-86 0 -163 -3 -171 -6z"/>
<path d="M1306 4824 c-21 -41 -35 -81 -33 -87 5 -12 275 -152 281 -146 12 14
76 145 76 156 0 29 -21 10 -50 -46 -16 -33 -34 -62 -39 -65 -11 -7 -111 43
-111 56 0 5 14 36 31 70 24 48 28 62 17 69 -9 6 -22 -9 -46 -56 -18 -36 -37
-65 -42 -65 -23 0 -80 35 -80 49 0 9 14 40 30 70 27 49 31 71 12 71 -4 0 -25
-34 -46 -76z"/>
<path d="M5371 4783 c-45 -22 -83 -83 -89 -141 -13 -145 148 -238 273 -156 24
16 59 75 69 117 15 64 -36 156 -101 183 -44 19 -111 17 -152 -3z m150 -28 c44
-23 69 -71 69 -132 0 -62 -28 -102 -91 -127 -52 -21 -105 -8 -148 35 -36 36
-45 65 -38 120 12 92 123 147 208 104z"/>
<path d="M1145 3843 c-30 -7 -72 -51 -78 -81 -19 -97 104 -162 174 -93 71 71
2 196 -96 174z"/>
<path d="M5643 3843 c-12 -2 -34 -18 -48 -34 -84 -100 49 -228 146 -141 78 69
7 194 -98 175z"/>
<path d="M1120 3055 c0 -2 4 -15 10 -29 7 -19 17 -25 47 -28 37 -3 39 -5 61
-67 l23 -65 -27 -21 c-22 -17 -26 -27 -20 -48 3 -15 10 -27 15 -27 17 0 256
211 259 228 1 10 -3 24 -10 33 -11 14 -43 18 -185 23 -95 3 -173 4 -173 1z
m270 -73 c0 -10 -67 -62 -79 -62 -10 0 -31 59 -25 70 3 7 104 -1 104 -8z"/>
<path d="M5366 3024 c-11 -28 -6 -51 20 -98 15 -26 24 -49 21 -52 -2 -3 -23 3
-46 12 -47 19 -47 19 -56 -16 -6 -25 -2 -28 137 -83 79 -32 149 -57 156 -57 6
0 13 7 14 15 0 8 1 20 2 26 1 6 -22 21 -51 33 -29 12 -55 25 -59 28 -3 4 31
15 76 24 75 16 83 20 94 48 7 17 12 32 11 33 -1 2 -45 -7 -98 -18 -54 -12
-104 -19 -111 -16 -8 3 -31 35 -51 71 -38 68 -49 77 -59 50z"/>
<path d="M1431 2712 c-73 -43 -133 -82 -134 -86 0 -11 66 -126 73 -126 3 0 15
6 26 14 19 14 19 15 -1 51 l-19 37 24 19 c14 10 62 39 108 65 45 26 85 50 88
55 6 10 -13 49 -24 49 -4 0 -67 -35 -141 -78z"/>
<path d="M5228 2693 c-34 -21 -84 -111 -70 -125 5 -5 67 -43 138 -84 117 -67
130 -72 142 -57 20 28 14 39 -38 67 -71 39 -65 50 24 41 l75 -7 16 31 16 31
-65 0 c-79 0 -96 6 -96 34 -1 39 -54 86 -97 86 -10 0 -30 -8 -45 -17z m72 -58
c10 -12 10 -21 2 -40 -13 -27 -23 -30 -53 -15 -23 13 -24 28 -2 52 20 22 36
23 53 3z"/>
<path d="M1577 2469 c-70 -49 -127 -93 -127 -96 0 -14 92 -133 103 -133 7 0
19 5 27 10 13 8 13 13 -2 37 -45 72 -45 73 -13 99 17 13 33 24 36 24 3 0 20
-20 37 -45 28 -40 35 -44 52 -35 26 14 25 23 -5 68 -14 20 -25 42 -25 49 0 11
39 39 44 31 1 -2 17 -22 35 -45 28 -37 34 -41 52 -30 10 6 19 16 19 21 0 12
-90 136 -99 136 -4 0 -64 -41 -134 -91z"/>
<path d="M5045 2450 c-11 -12 -15 -24 -9 -29 39 -35 244 -191 251 -191 13 0
35 42 26 50 -17 17 -242 190 -246 190 -2 0 -12 -9 -22 -20z"/>
<path d="M4942 2321 c-22 -16 -24 -24 -21 -84 2 -36 1 -68 -2 -72 -4 -3 -21
11 -39 31 l-32 37 -21 -21 -21 -22 29 -32 c78 -87 191 -198 201 -198 6 0 17 7
24 15 10 12 5 24 -30 65 -23 28 -41 52 -39 54 2 2 39 -4 81 -12 73 -15 78 -15
97 2 12 11 21 22 21 26 0 4 -39 15 -87 25 -118 24 -123 27 -124 78 0 23 -4 61
-7 84 l-7 42 -23 -18z"/>
<path d="M1849 2185 c-47 -47 -94 -85 -103 -85 -10 0 -19 11 -22 30 -6 25 -11
30 -37 30 -29 0 -29 -1 -24 -36 10 -63 67 -105 110 -82 12 6 66 52 120 101 93
86 97 91 81 109 -10 10 -22 18 -28 18 -6 0 -50 -38 -97 -85z"/>
<path d="M2015 2004 c-77 -46 -141 -88 -143 -93 -1 -4 4 -14 13 -21 13 -11 23
-11 54 0 37 12 40 11 90 -26 56 -42 55 -41 41 -80 -8 -21 -7 -31 6 -46 32 -34
29 -40 100 190 l38 124 -25 19 c-13 10 -26 18 -29 18 -3 -1 -68 -39 -145 -85z
m111 -39 c-16 -62 -25 -76 -44 -66 -25 13 -46 40 -39 48 15 15 63 42 76 42 9
1 11 -6 7 -24z"/>
<path d="M4620 2045 c-6 -8 -8 -20 -4 -27 23 -40 178 -248 183 -248 16 0 116
82 113 93 -9 34 -28 37 -62 12 -19 -14 -35 -25 -36 -25 -2 0 -37 47 -79 105
-42 58 -83 105 -90 105 -7 0 -18 -7 -25 -15z"/>
<path d="M2309 1788 c-66 -132 -70 -143 -53 -155 10 -7 23 -13 29 -13 6 0 30
39 53 86 24 48 45 84 48 82 2 -3 11 -56 20 -119 15 -111 27 -139 59 -139 6 0
43 64 82 143 64 127 70 143 55 155 -9 6 -21 12 -27 12 -6 0 -30 -38 -53 -85
-23 -47 -46 -85 -50 -85 -5 0 -14 54 -21 120 -11 98 -17 122 -31 130 -10 6
-23 10 -29 10 -6 0 -43 -64 -82 -142z"/>
<path d="M4402 1903 c-21 -18 -21 -19 57 -150 42 -73 80 -135 83 -139 10 -9
128 65 128 80 0 8 -7 19 -15 26 -12 10 -21 8 -49 -10 l-35 -21 -34 53 c-19 29
-49 81 -68 115 -19 35 -37 63 -40 63 -4 0 -16 -8 -27 -17z"/>
<path d="M4223 1823 c-7 -2 -13 -9 -13 -15 0 -5 28 -72 62 -149 62 -138 73
-152 107 -130 15 10 19 0 -86 229 -31 68 -41 77 -70 65z"/>
<path d="M2701 1703 c-46 -159 -62 -225 -58 -237 6 -15 94 -36 152 -36 124 0
188 189 96 281 -26 25 -112 59 -152 59 -14 0 -23 -17 -38 -67z m146 -35 c43
-40 23 -157 -31 -178 -21 -8 -90 1 -102 13 -3 2 7 48 22 102 l27 97 31 -6 c16
-4 40 -16 53 -28z"/>
<path d="M4068 1763 c-22 -5 -22 -5 -3 -67 22 -74 20 -83 -22 -92 -21 -4 -42
-8 -47 -8 -5 -1 -17 26 -26 59 -14 53 -20 60 -43 63 -23 3 -27 0 -27 -22 0
-14 11 -60 24 -103 13 -43 31 -104 40 -135 16 -57 26 -65 59 -52 13 5 13 12 1
57 -18 67 -18 66 9 76 71 26 72 25 92 -40 18 -57 20 -60 44 -54 14 4 27 8 29
10 4 4 -84 291 -94 306 -5 9 -8 10 -36 2z"/>
<path d="M3076 1653 c-3 -21 -10 -90 -17 -153 -6 -63 -13 -118 -16 -123 -5 -8
47 -30 54 -23 3 2 8 29 12 60 10 71 17 78 36 33 8 -21 22 -53 29 -72 12 -29
20 -35 45 -35 l30 0 -26 71 -26 70 26 22 c35 29 48 67 37 107 -12 40 -34 57
-85 65 -22 3 -52 8 -67 11 -24 5 -27 2 -32 -33z m118 -49 c9 -8 16 -19 16 -23
0 -16 -25 -31 -52 -31 -25 0 -28 3 -28 35 0 30 3 35 24 35 14 0 32 -7 40 -16z"/>
<path d="M3455 1648 c-76 -44 -106 -148 -65 -228 32 -62 73 -85 152 -85 72 0
102 14 142 68 26 35 33 121 13 168 -36 87 -157 125 -242 77z m164 -73 c43 -49
44 -109 2 -154 -24 -26 -36 -31 -75 -31 -36 0 -52 6 -78 29 -29 26 -33 35 -33
81 0 46 4 55 33 81 25 23 42 29 76 29 38 0 48 -5 75 -35z"/>
<path d="M2544 1042 c-12 -8 -94 -216 -94 -238 0 -25 30 -15 48 16 15 27 22
30 64 30 43 0 49 -3 63 -30 15 -29 38 -39 49 -21 9 14 -89 246 -105 248 -8 2
-19 0 -25 -5z m46 -143 c0 -5 -13 -9 -30 -9 -35 0 -35 -1 -14 48 l15 37 15
-34 c8 -18 14 -37 14 -42z"/>
<path d="M2745 1038 c-3 -8 -4 -66 -3 -129 l3 -114 59 1 c49 1 63 6 78 24 24
29 23 61 -2 93 -13 16 -16 28 -10 32 17 11 11 61 -10 80 -26 23 -108 33 -115
13z m90 -63 c0 -13 -8 -21 -22 -23 -19 -3 -23 1 -23 23 0 22 4 26 23 23 14 -2
22 -10 22 -23z m10 -105 c0 -20 -6 -26 -27 -28 -25 -3 -28 0 -28 28 0 28 3 31
28 28 21 -2 27 -8 27 -28z"/>
<path d="M2999 1011 c-35 -35 -39 -44 -39 -91 0 -47 4 -56 39 -91 33 -34 45
-39 82 -39 56 0 87 16 116 59 59 87 -7 201 -116 201 -37 0 -49 -6 -82 -39z
m149 -37 c53 -61 1 -156 -78 -139 -42 9 -63 38 -63 87 0 82 86 115 141 52z"/>
<path d="M3354 1040 c-11 -4 -33 -22 -47 -40 -48 -57 -31 -155 33 -194 41 -23
111 -21 145 6 29 23 59 83 50 98 -4 6 -33 10 -66 10 -52 0 -59 -2 -59 -20 0
-16 7 -20 35 -20 41 0 45 -13 10 -36 -30 -20 -84 -12 -109 15 -28 31 -31 82
-7 113 28 35 71 44 115 23 36 -17 56 -14 56 10 0 34 -102 57 -156 35z"/>
<path d="M3683 1038 c-11 -18 -93 -228 -93 -239 0 -21 40 -7 52 19 12 24 20
27 65 30 48 3 53 1 59 -22 5 -21 41 -42 53 -31 5 6 -66 203 -85 233 -16 24
-38 29 -51 10z m43 -103 c19 -46 19 -45 -21 -45 -19 0 -35 2 -35 4 0 10 31 76
36 76 3 0 12 -16 20 -35z"/>
<path d="M3892 924 l3 -129 65 2 c59 2 68 5 92 32 34 38 43 85 26 135 -18 53
-51 75 -126 82 l-63 7 3 -129z m123 51 c52 -51 20 -140 -48 -133 -32 3 -32 3
-35 67 -2 35 -1 70 2 77 9 22 55 16 81 -11z"/>
<path d="M4204 1031 c-32 -20 -64 -74 -64 -110 0 -40 28 -90 62 -111 79 -48
189 -1 198 85 6 56 -1 79 -39 116 -33 33 -45 39 -82 39 -25 0 -57 -8 -75 -19z
m131 -51 c31 -31 27 -96 -8 -126 -38 -32 -72 -30 -108 5 -40 40 -39 82 1 123
26 25 36 29 63 24 18 -4 41 -15 52 -26z"/>
</g>
</svg>
